<svg xmlns="http://www.w3.org/2000/svg" width="330" height="330" font-family="Arial" font-size="10" text-anchor="middle" fill="#000">
  <rect x="0" y="0" width="20" height="20" fill="rgb(0,0,255)" />
  <text x="10.0" y="14.0">255</text>
  <rect x="22" y="0" width="20" height="20" fill="rgb(0,0,255)" />
  <text x="32.0" y="14.0">255</text>
  <rect x="44" y="0" width="20" height="20" fill="rgb(0,0,255)" />
  <text x="54.0" y="14.0">255</text>
  <rect x="66" y="0" width="20" height="20" fill="rgb(0,0,255)" />
  <text x="76.0" y="14.0">255</text>
  <rect x="88" y="0" width="20" height="20" fill="rgb(0,0,255)" />
  <text x="98.0" y="14.0">255</text>
  <rect x="110" y="0" width="20" height="20" fill="rgb(0,0,255)" />
  <text x="120.0" y="14.0">255</text>
  <rect x="132" y="0" width="20" height="20" fill="rgb(0,0,255)" />
  <text x="142.0" y="14.0">255</text>
  <rect x="154" y="0" width="20" height="20" fill="rgb(0,0,255)" />
  <text x="164.0" y="14.0">255</text>
  <rect x="176" y="0" width="20" height="20" fill="rgb(0,0,255)" />
  <text x="186.0" y="14.0">255</text>
  <rect x="198" y="0" width="20" height="20" fill="rgb(0,0,255)" />
  <text x="208.0" y="14.0">255</text>
  <rect x="220" y="0" width="20" height="20" fill="rgb(0,0,255)" />
  <text x="230.0" y="14.0">255</text>
  <rect x="242" y="0" width="20" height="20" fill="rgb(0,0,255)" />
  <text x="252.0" y="14.0">255</text>
  <rect x="264" y="0" width="20" height="20" fill="rgb(0,0,255)" />
  <text x="274.0" y="14.0">255</text>
  <rect x="286" y="0" width="20" height="20" fill="rgb(0,0,255)" />
  <text x="296.0" y="14.0">255</text>
  <rect x="308" y="0" width="20" height="20" fill="rgb(0,0,255)" />
  <text x="318.0" y="14.0">255</text>
  <rect x="0" y="22" width="20" height="20" fill="rgb(0,0,255)" />
  <text x="10.0" y="36.0">255</text>
  <rect x="22" y="22" width="20" height="20" fill="rgb(0,0,255)" />
  <text x="32.0" y="36.0">255</text>
  <rect x="44" y="22" width="20" height="20" fill="rgb(0,0,255)" />
  <text x="54.0" y="36.0">255</text>
  <rect x="66" y="22" width="20" height="20" fill="rgb(0,0,54)" />
  <text x="76.0" y="36.0">54</text>
  <rect x="88" y="22" width="20" height="20" fill="rgb(0,0,31)" />
  <text x="98.0" y="36.0">31</text>
  <rect x="110" y="22" width="20" height="20" fill="rgb(0,0,255)" />
  <text x="120.0" y="36.0">255</text>
  <rect x="132" y="22" width="20" height="20" fill="rgb(0,0,255)" />
  <text x="142.0" y="36.0">255</text>
  <rect x="154" y="22" width="20" height="20" fill="rgb(0,0,255)" />
  <text x="164.0" y="36.0">255</text>
  <rect x="176" y="22" width="20" height="20" fill="rgb(0,0,255)" />
  <text x="186.0" y="36.0">255</text>
  <rect x="198" y="22" width="20" height="20" fill="rgb(0,0,255)" />
  <text x="208.0" y="36.0">255</text>
  <rect x="220" y="22" width="20" height="20" fill="rgb(0,0,255)" />
  <text x="230.0" y="36.0">255</text>
  <rect x="242" y="22" width="20" height="20" fill="rgb(0,0,255)" />
  <text x="252.0" y="36.0">255</text>
  <rect x="264" y="22" width="20" height="20" fill="rgb(0,0,255)" />
  <text x="274.0" y="36.0">255</text>
  <rect x="286" y="22" width="20" height="20" fill="rgb(0,0,255)" />
  <text x="296.0" y="36.0">255</text>
  <rect x="308" y="22" width="20" height="20" fill="rgb(0,0,255)" />
  <text x="318.0" y="36.0">255</text>
  <rect x="0" y="44" width="20" height="20" fill="rgb(0,0,255)" />
  <text x="10.0" y="58.0">255</text>
  <rect x="22" y="44" width="20" height="20" fill="rgb(0,0,255)" />
  <text x="32.0" y="58.0">255</text>
  <rect x="44" y="44" width="20" height="20" fill="rgb(0,0,54)" />
  <text x="54.0" y="58.0">54</text>
  <rect x="66" y="44" width="20" height="20" fill="rgb(0,0,31)" />
  <text x="76.0" y="58.0">31</text>
  <rect x="88" y="44" width="20" height="20" fill="rgb(0,0,178)" />
  <text x="98.0" y="58.0">178</text>
  <rect x="110" y="44" width="20" height="20" fill="rgb(0,0,42)" />
  <text x="120.0" y="58.0">42</text>
  <rect x="132" y="44" width="20" height="20" fill="rgb(0,0,255)" />
  <text x="142.0" y="58.0">255</text>
  <rect x="154" y="44" width="20" height="20" fill="rgb(0,0,255)" />
  <text x="164.0" y="58.0">255</text>
  <rect x="176" y="44" width="20" height="20" fill="rgb(0,0,255)" />
  <text x="186.0" y="58.0">255</text>
  <rect x="198" y="44" width="20" height="20" fill="rgb(0,0,255)" />
  <text x="208.0" y="58.0">255</text>
  <rect x="220" y="44" width="20" height="20" fill="rgb(0,0,255)" />
  <text x="230.0" y="58.0">255</text>
  <rect x="242" y="44" width="20" height="20" fill="rgb(0,0,255)" />
  <text x="252.0" y="58.0">255</text>
  <rect x="264" y="44" width="20" height="20" fill="rgb(0,0,255)" />
  <text x="274.0" y="58.0">255</text>
  <rect x="286" y="44" width="20" height="20" fill="rgb(0,0,255)" />
  <text x="296.0" y="58.0">255</text>
  <rect x="308" y="44" width="20" height="20" fill="rgb(0,0,255)" />
  <text x="318.0" y="58.0">255</text>
  <rect x="0" y="66" width="20" height="20" fill="rgb(0,0,255)" />
  <text x="10.0" y="80.0">255</text>
  <rect x="22" y="66" width="20" height="20" fill="rgb(0,0,54)" />
  <text x="32.0" y="80.0">54</text>
  <rect x="44" y="66" width="20" height="20" fill="rgb(0,0,31)" />
  <text x="54.0" y="80.0">31</text>
  <rect x="66" y="66" width="20" height="20" fill="rgb(0,0,178)" />
  <text x="76.0" y="80.0">178</text>
  <rect x="88" y="66" width="20" height="20" fill="rgb(0,0,178)" />
  <text x="98.0" y="80.0">178</text>
  <rect x="110" y="66" width="20" height="20" fill="rgb(0,0,42)" />
  <text x="120.0" y="80.0">42</text>
  <rect x="132" y="66" width="20" height="20" fill="rgb(0,0,42)" />
  <text x="142.0" y="80.0">42</text>
  <rect x="154" y="66" width="20" height="20" fill="rgb(0,0,255)" />
  <text x="164.0" y="80.0">255</text>
  <rect x="176" y="66" width="20" height="20" fill="rgb(0,0,255)" />
  <text x="186.0" y="80.0">255</text>
  <rect x="198" y="66" width="20" height="20" fill="rgb(0,0,255)" />
  <text x="208.0" y="80.0">255</text>
  <rect x="220" y="66" width="20" height="20" fill="rgb(0,0,255)" />
  <text x="230.0" y="80.0">255</text>
  <rect x="242" y="66" width="20" height="20" fill="rgb(0,0,255)" />
  <text x="252.0" y="80.0">255</text>
  <rect x="264" y="66" width="20" height="20" fill="rgb(0,0,255)" />
  <text x="274.0" y="80.0">255</text>
  <rect x="286" y="66" width="20" height="20" fill="rgb(0,0,255)" />
  <text x="296.0" y="80.0">255</text>
  <rect x="308" y="66" width="20" height="20" fill="rgb(0,0,255)" />
  <text x="318.0" y="80.0">255</text>
  <rect x="0" y="88" width="20" height="20" fill="rgb(0,0,255)" />
  <text x="10.0" y="102.0">255</text>
  <rect x="22" y="88" width="20" height="20" fill="rgb(0,0,54)" />
  <text x="32.0" y="102.0">54</text>
  <rect x="44" y="88" width="20" height="20" fill="rgb(0,0,31)" />
  <text x="54.0" y="102.0">31</text>
  <rect x="66" y="88" width="20" height="20" fill="rgb(0,0,178)" />
  <text x="76.0" y="102.0">178</text>
  <rect x="88" y="88" width="20" height="20" fill="rgb(0,0,42)" />
  <text x="98.0" y="102.0">42</text>
  <rect x="110" y="88" width="20" height="20" fill="rgb(0,0,0)" />
  <text x="120.0" y="102.0">0</text>
  <rect x="132" y="88" width="20" height="20" fill="rgb(0,0,42)" />
  <text x="142.0" y="102.0">42</text>
  <rect x="154" y="88" width="20" height="20" fill="rgb(0,0,42)" />
  <text x="164.0" y="102.0">42</text>
  <rect x="176" y="88" width="20" height="20" fill="rgb(0,0,255)" />
  <text x="186.0" y="102.0">255</text>
  <rect x="198" y="88" width="20" height="20" fill="rgb(0,0,255)" />
  <text x="208.0" y="102.0">255</text>
  <rect x="220" y="88" width="20" height="20" fill="rgb(0,0,255)" />
  <text x="230.0" y="102.0">255</text>
  <rect x="242" y="88" width="20" height="20" fill="rgb(0,0,255)" />
  <text x="252.0" y="102.0">255</text>
  <rect x="264" y="88" width="20" height="20" fill="rgb(0,0,255)" />
  <text x="274.0" y="102.0">255</text>
  <rect x="286" y="88" width="20" height="20" fill="rgb(0,0,255)" />
  <text x="296.0" y="102.0">255</text>
  <rect x="308" y="88" width="20" height="20" fill="rgb(0,0,255)" />
  <text x="318.0" y="102.0">255</text>
  <rect x="0" y="110" width="20" height="20" fill="rgb(0,0,255)" />
  <text x="10.0" y="124.0">255</text>
  <rect x="22" y="110" width="20" height="20" fill="rgb(0,0,54)" />
  <text x="32.0" y="124.0">54</text>
  <rect x="44" y="110" width="20" height="20" fill="rgb(0,0,31)" />
  <text x="54.0" y="124.0">31</text>
  <rect x="66" y="110" width="20" height="20" fill="rgb(0,0,178)" />
  <text x="76.0" y="124.0">178</text>
  <rect x="88" y="110" width="20" height="20" fill="rgb(0,0,42)" />
  <text x="98.0" y="124.0">42</text>
  <rect x="110" y="110" width="20" height="20" fill="rgb(0,0,42)" />
  <text x="120.0" y="124.0">42</text>
  <rect x="132" y="110" width="20" height="20" fill="rgb(0,0,42)" />
  <text x="142.0" y="124.0">42</text>
  <rect x="154" y="110" width="20" height="20" fill="rgb(0,0,42)" />
  <text x="164.0" y="124.0">42</text>
  <rect x="176" y="110" width="20" height="20" fill="rgb(0,0,42)" />
  <text x="186.0" y="124.0">42</text>
  <rect x="198" y="110" width="20" height="20" fill="rgb(0,0,255)" />
  <text x="208.0" y="124.0">255</text>
  <rect x="220" y="110" width="20" height="20" fill="rgb(0,0,255)" />
  <text x="230.0" y="124.0">255</text>
  <rect x="242" y="110" width="20" height="20" fill="rgb(0,0,255)" />
  <text x="252.0" y="124.0">255</text>
  <rect x="264" y="110" width="20" height="20" fill="rgb(0,0,255)" />
  <text x="274.0" y="124.0">255</text>
  <rect x="286" y="110" width="20" height="20" fill="rgb(0,0,255)" />
  <text x="296.0" y="124.0">255</text>
  <rect x="308" y="110" width="20" height="20" fill="rgb(0,0,255)" />
  <text x="318.0" y="124.0">255</text>
  <rect x="0" y="132" width="20" height="20" fill="rgb(0,0,255)" />
  <text x="10.0" y="146.0">255</text>
  <rect x="22" y="132" width="20" height="20" fill="rgb(0,0,54)" />
  <text x="32.0" y="146.0">54</text>
  <rect x="44" y="132" width="20" height="20" fill="rgb(0,0,31)" />
  <text x="54.0" y="146.0">31</text>
  <rect x="66" y="132" width="20" height="20" fill="rgb(0,0,178)" />
  <text x="76.0" y="146.0">178</text>
  <rect x="88" y="132" width="20" height="20" fill="rgb(0,0,42)" />
  <text x="98.0" y="146.0">42</text>
  <rect x="110" y="132" width="20" height="20" fill="rgb(0,0,42)" />
  <text x="120.0" y="146.0">42</text>
  <rect x="132" y="132" width="20" height="20" fill="rgb(0,0,0)" />
  <text x="142.0" y="146.0">0</text>
  <rect x="154" y="132" width="20" height="20" fill="rgb(0,0,42)" />
  <text x="164.0" y="146.0">42</text>
  <rect x="176" y="132" width="20" height="20" fill="rgb(0,0,42)" />
  <text x="186.0" y="146.0">42</text>
  <rect x="198" y="132" width="20" height="20" fill="rgb(0,0,42)" />
  <text x="208.0" y="146.0">42</text>
  <rect x="220" y="132" width="20" height="20" fill="rgb(0,0,255)" />
  <text x="230.0" y="146.0">255</text>
  <rect x="242" y="132" width="20" height="20" fill="rgb(0,0,255)" />
  <text x="252.0" y="146.0">255</text>
  <rect x="264" y="132" width="20" height="20" fill="rgb(0,0,255)" />
  <text x="274.0" y="146.0">255</text>
  <rect x="286" y="132" width="20" height="20" fill="rgb(0,0,255)" />
  <text x="296.0" y="146.0">255</text>
  <rect x="308" y="132" width="20" height="20" fill="rgb(0,0,255)" />
  <text x="318.0" y="146.0">255</text>
  <rect x="0" y="154" width="20" height="20" fill="rgb(0,0,255)" />
  <text x="10.0" y="168.0">255</text>
  <rect x="22" y="154" width="20" height="20" fill="rgb(0,0,54)" />
  <text x="32.0" y="168.0">54</text>
  <rect x="44" y="154" width="20" height="20" fill="rgb(0,0,31)" />
  <text x="54.0" y="168.0">31</text>
  <rect x="66" y="154" width="20" height="20" fill="rgb(0,0,178)" />
  <text x="76.0" y="168.0">178</text>
  <rect x="88" y="154" width="20" height="20" fill="rgb(0,0,42)" />
  <text x="98.0" y="168.0">42</text>
  <rect x="110" y="154" width="20" height="20" fill="rgb(0,0,42)" />
  <text x="120.0" y="168.0">42</text>
  <rect x="132" y="154" width="20" height="20" fill="rgb(0,0,42)" />
  <text x="142.0" y="168.0">42</text>
  <rect x="154" y="154" width="20" height="20" fill="rgb(0,0,42)" />
  <text x="164.0" y="168.0">42</text>
  <rect x="176" y="154" width="20" height="20" fill="rgb(0,0,42)" />
  <text x="186.0" y="168.0">42</text>
  <rect x="198" y="154" width="20" height="20" fill="rgb(0,0,42)" />
  <text x="208.0" y="168.0">42</text>
  <rect x="220" y="154" width="20" height="20" fill="rgb(0,0,42)" />
  <text x="230.0" y="168.0">42</text>
  <rect x="242" y="154" width="20" height="20" fill="rgb(0,0,255)" />
  <text x="252.0" y="168.0">255</text>
  <rect x="264" y="154" width="20" height="20" fill="rgb(0,0,255)" />
  <text x="274.0" y="168.0">255</text>
  <rect x="286" y="154" width="20" height="20" fill="rgb(0,0,255)" />
  <text x="296.0" y="168.0">255</text>
  <rect x="308" y="154" width="20" height="20" fill="rgb(0,0,255)" />
  <text x="318.0" y="168.0">255</text>
  <rect x="0" y="176" width="20" height="20" fill="rgb(0,0,255)" />
  <text x="10.0" y="190.0">255</text>
  <rect x="22" y="176" width="20" height="20" fill="rgb(0,0,54)" />
  <text x="32.0" y="190.0">54</text>
  <rect x="44" y="176" width="20" height="20" fill="rgb(0,0,31)" />
  <text x="54.0" y="190.0">31</text>
  <rect x="66" y="176" width="20" height="20" fill="rgb(0,0,178)" />
  <text x="76.0" y="190.0">178</text>
  <rect x="88" y="176" width="20" height="20" fill="rgb(0,0,178)" />
  <text x="98.0" y="190.0">178</text>
  <rect x="110" y="176" width="20" height="20" fill="rgb(0,0,42)" />
  <text x="120.0" y="190.0">42</text>
  <rect x="132" y="176" width="20" height="20" fill="rgb(0,0,42)" />
  <text x="142.0" y="190.0">42</text>
  <rect x="154" y="176" width="20" height="20" fill="rgb(0,0,42)" />
  <text x="164.0" y="190.0">42</text>
  <rect x="176" y="176" width="20" height="20" fill="rgb(0,0,0)" />
  <text x="186.0" y="190.0">0</text>
  <rect x="198" y="176" width="20" height="20" fill="rgb(0,0,42)" />
  <text x="208.0" y="190.0">42</text>
  <rect x="220" y="176" width="20" height="20" fill="rgb(0,0,42)" />
  <text x="230.0" y="190.0">42</text>
  <rect x="242" y="176" width="20" height="20" fill="rgb(0,0,42)" />
  <text x="252.0" y="190.0">42</text>
  <rect x="264" y="176" width="20" height="20" fill="rgb(0,0,255)" />
  <text x="274.0" y="190.0">255</text>
  <rect x="286" y="176" width="20" height="20" fill="rgb(0,0,255)" />
  <text x="296.0" y="190.0">255</text>
  <rect x="308" y="176" width="20" height="20" fill="rgb(0,0,255)" />
  <text x="318.0" y="190.0">255</text>
  <rect x="0" y="198" width="20" height="20" fill="rgb(0,0,255)" />
  <text x="10.0" y="212.0">255</text>
  <rect x="22" y="198" width="20" height="20" fill="rgb(0,0,255)" />
  <text x="32.0" y="212.0">255</text>
  <rect x="44" y="198" width="20" height="20" fill="rgb(0,0,54)" />
  <text x="54.0" y="212.0">54</text>
  <rect x="66" y="198" width="20" height="20" fill="rgb(0,0,31)" />
  <text x="76.0" y="212.0">31</text>
  <rect x="88" y="198" width="20" height="20" fill="rgb(0,0,178)" />
  <text x="98.0" y="212.0">178</text>
  <rect x="110" y="198" width="20" height="20" fill="rgb(0,0,42)" />
  <text x="120.0" y="212.0">42</text>
  <rect x="132" y="198" width="20" height="20" fill="rgb(0,0,42)" />
  <text x="142.0" y="212.0">42</text>
  <rect x="154" y="198" width="20" height="20" fill="rgb(0,0,42)" />
  <text x="164.0" y="212.0">42</text>
  <rect x="176" y="198" width="20" height="20" fill="rgb(0,0,42)" />
  <text x="186.0" y="212.0">42</text>
  <rect x="198" y="198" width="20" height="20" fill="rgb(0,0,42)" />
  <text x="208.0" y="212.0">42</text>
  <rect x="220" y="198" width="20" height="20" fill="rgb(0,0,0)" />
  <text x="230.0" y="212.0">0</text>
  <rect x="242" y="198" width="20" height="20" fill="rgb(0,0,42)" />
  <text x="252.0" y="212.0">42</text>
  <rect x="264" y="198" width="20" height="20" fill="rgb(0,0,42)" />
  <text x="274.0" y="212.0">42</text>
  <rect x="286" y="198" width="20" height="20" fill="rgb(0,0,255)" />
  <text x="296.0" y="212.0">255</text>
  <rect x="308" y="198" width="20" height="20" fill="rgb(0,0,255)" />
  <text x="318.0" y="212.0">255</text>
  <rect x="0" y="220" width="20" height="20" fill="rgb(0,0,255)" />
  <text x="10.0" y="234.0">255</text>
  <rect x="22" y="220" width="20" height="20" fill="rgb(0,0,255)" />
  <text x="32.0" y="234.0">255</text>
  <rect x="44" y="220" width="20" height="20" fill="rgb(0,0,54)" />
  <text x="54.0" y="234.0">54</text>
  <rect x="66" y="220" width="20" height="20" fill="rgb(0,0,54)" />
  <text x="76.0" y="234.0">54</text>
  <rect x="88" y="220" width="20" height="20" fill="rgb(0,0,31)" />
  <text x="98.0" y="234.0">31</text>
  <rect x="110" y="220" width="20" height="20" fill="rgb(0,0,178)" />
  <text x="120.0" y="234.0">178</text>
  <rect x="132" y="220" width="20" height="20" fill="rgb(0,0,178)" />
  <text x="142.0" y="234.0">178</text>
  <rect x="154" y="220" width="20" height="20" fill="rgb(0,0,42)" />
  <text x="164.0" y="234.0">42</text>
  <rect x="176" y="220" width="20" height="20" fill="rgb(0,0,42)" />
  <text x="186.0" y="234.0">42</text>
  <rect x="198" y="220" width="20" height="20" fill="rgb(0,0,42)" />
  <text x="208.0" y="234.0">42</text>
  <rect x="220" y="220" width="20" height="20" fill="rgb(0,0,42)" />
  <text x="230.0" y="234.0">42</text>
  <rect x="242" y="220" width="20" height="20" fill="rgb(0,0,178)" />
  <text x="252.0" y="234.0">178</text>
  <rect x="264" y="220" width="20" height="20" fill="rgb(0,0,178)" />
  <text x="274.0" y="234.0">178</text>
  <rect x="286" y="220" width="20" height="20" fill="rgb(0,0,31)" />
  <text x="296.0" y="234.0">31</text>
  <rect x="308" y="220" width="20" height="20" fill="rgb(0,0,255)" />
  <text x="318.0" y="234.0">255</text>
  <rect x="0" y="242" width="20" height="20" fill="rgb(0,0,255)" />
  <text x="10.0" y="256.0">255</text>
  <rect x="22" y="242" width="20" height="20" fill="rgb(0,0,255)" />
  <text x="32.0" y="256.0">255</text>
  <rect x="44" y="242" width="20" height="20" fill="rgb(0,0,255)" />
  <text x="54.0" y="256.0">255</text>
  <rect x="66" y="242" width="20" height="20" fill="rgb(0,0,54)" />
  <text x="76.0" y="256.0">54</text>
  <rect x="88" y="242" width="20" height="20" fill="rgb(0,0,54)" />
  <text x="98.0" y="256.0">54</text>
  <rect x="110" y="242" width="20" height="20" fill="rgb(0,0,31)" />
  <text x="120.0" y="256.0">31</text>
  <rect x="132" y="242" width="20" height="20" fill="rgb(0,0,178)" />
  <text x="142.0" y="256.0">178</text>
  <rect x="154" y="242" width="20" height="20" fill="rgb(0,0,178)" />
  <text x="164.0" y="256.0">178</text>
  <rect x="176" y="242" width="20" height="20" fill="rgb(0,0,178)" />
  <text x="186.0" y="256.0">178</text>
  <rect x="198" y="242" width="20" height="20" fill="rgb(0,0,178)" />
  <text x="208.0" y="256.0">178</text>
  <rect x="220" y="242" width="20" height="20" fill="rgb(0,0,178)" />
  <text x="230.0" y="256.0">178</text>
  <rect x="242" y="242" width="20" height="20" fill="rgb(0,0,178)" />
  <text x="252.0" y="256.0">178</text>
  <rect x="264" y="242" width="20" height="20" fill="rgb(0,0,31)" />
  <text x="274.0" y="256.0">31</text>
  <rect x="286" y="242" width="20" height="20" fill="rgb(0,0,54)" />
  <text x="296.0" y="256.0">54</text>
  <rect x="308" y="242" width="20" height="20" fill="rgb(0,0,255)" />
  <text x="318.0" y="256.0">255</text>
  <rect x="0" y="264" width="20" height="20" fill="rgb(0,0,255)" />
  <text x="10.0" y="278.0">255</text>
  <rect x="22" y="264" width="20" height="20" fill="rgb(0,0,255)" />
  <text x="32.0" y="278.0">255</text>
  <rect x="44" y="264" width="20" height="20" fill="rgb(0,0,255)" />
  <text x="54.0" y="278.0">255</text>
  <rect x="66" y="264" width="20" height="20" fill="rgb(0,0,255)" />
  <text x="76.0" y="278.0">255</text>
  <rect x="88" y="264" width="20" height="20" fill="rgb(0,0,54)" />
  <text x="98.0" y="278.0">54</text>
  <rect x="110" y="264" width="20" height="20" fill="rgb(0,0,54)" />
  <text x="120.0" y="278.0">54</text>
  <rect x="132" y="264" width="20" height="20" fill="rgb(0,0,31)" />
  <text x="142.0" y="278.0">31</text>
  <rect x="154" y="264" width="20" height="20" fill="rgb(0,0,31)" />
  <text x="164.0" y="278.0">31</text>
  <rect x="176" y="264" width="20" height="20" fill="rgb(0,0,31)" />
  <text x="186.0" y="278.0">31</text>
  <rect x="198" y="264" width="20" height="20" fill="rgb(0,0,31)" />
  <text x="208.0" y="278.0">31</text>
  <rect x="220" y="264" width="20" height="20" fill="rgb(0,0,31)" />
  <text x="230.0" y="278.0">31</text>
  <rect x="242" y="264" width="20" height="20" fill="rgb(0,0,31)" />
  <text x="252.0" y="278.0">31</text>
  <rect x="264" y="264" width="20" height="20" fill="rgb(0,0,54)" />
  <text x="274.0" y="278.0">54</text>
  <rect x="286" y="264" width="20" height="20" fill="rgb(0,0,255)" />
  <text x="296.0" y="278.0">255</text>
  <rect x="308" y="264" width="20" height="20" fill="rgb(0,0,255)" />
  <text x="318.0" y="278.0">255</text>
  <rect x="0" y="286" width="20" height="20" fill="rgb(0,0,255)" />
  <text x="10.0" y="300.0">255</text>
  <rect x="22" y="286" width="20" height="20" fill="rgb(0,0,255)" />
  <text x="32.0" y="300.0">255</text>
  <rect x="44" y="286" width="20" height="20" fill="rgb(0,0,255)" />
  <text x="54.0" y="300.0">255</text>
  <rect x="66" y="286" width="20" height="20" fill="rgb(0,0,255)" />
  <text x="76.0" y="300.0">255</text>
  <rect x="88" y="286" width="20" height="20" fill="rgb(0,0,255)" />
  <text x="98.0" y="300.0">255</text>
  <rect x="110" y="286" width="20" height="20" fill="rgb(0,0,255)" />
  <text x="120.0" y="300.0">255</text>
  <rect x="132" y="286" width="20" height="20" fill="rgb(0,0,54)" />
  <text x="142.0" y="300.0">54</text>
  <rect x="154" y="286" width="20" height="20" fill="rgb(0,0,54)" />
  <text x="164.0" y="300.0">54</text>
  <rect x="176" y="286" width="20" height="20" fill="rgb(0,0,54)" />
  <text x="186.0" y="300.0">54</text>
  <rect x="198" y="286" width="20" height="20" fill="rgb(0,0,54)" />
  <text x="208.0" y="300.0">54</text>
  <rect x="220" y="286" width="20" height="20" fill="rgb(0,0,54)" />
  <text x="230.0" y="300.0">54</text>
  <rect x="242" y="286" width="20" height="20" fill="rgb(0,0,54)" />
  <text x="252.0" y="300.0">54</text>
  <rect x="264" y="286" width="20" height="20" fill="rgb(0,0,255)" />
  <text x="274.0" y="300.0">255</text>
  <rect x="286" y="286" width="20" height="20" fill="rgb(0,0,255)" />
  <text x="296.0" y="300.0">255</text>
  <rect x="308" y="286" width="20" height="20" fill="rgb(0,0,255)" />
  <text x="318.0" y="300.0">255</text>
  <rect x="0" y="308" width="20" height="20" fill="rgb(0,0,255)" />
  <text x="10.0" y="322.0">255</text>
  <rect x="22" y="308" width="20" height="20" fill="rgb(0,0,255)" />
  <text x="32.0" y="322.0">255</text>
  <rect x="44" y="308" width="20" height="20" fill="rgb(0,0,255)" />
  <text x="54.0" y="322.0">255</text>
  <rect x="66" y="308" width="20" height="20" fill="rgb(0,0,255)" />
  <text x="76.0" y="322.0">255</text>
  <rect x="88" y="308" width="20" height="20" fill="rgb(0,0,255)" />
  <text x="98.0" y="322.0">255</text>
  <rect x="110" y="308" width="20" height="20" fill="rgb(0,0,255)" />
  <text x="120.0" y="322.0">255</text>
  <rect x="132" y="308" width="20" height="20" fill="rgb(0,0,255)" />
  <text x="142.0" y="322.0">255</text>
  <rect x="154" y="308" width="20" height="20" fill="rgb(0,0,255)" />
  <text x="164.0" y="322.0">255</text>
  <rect x="176" y="308" width="20" height="20" fill="rgb(0,0,255)" />
  <text x="186.0" y="322.0">255</text>
  <rect x="198" y="308" width="20" height="20" fill="rgb(0,0,255)" />
  <text x="208.0" y="322.0">255</text>
  <rect x="220" y="308" width="20" height="20" fill="rgb(0,0,255)" />
  <text x="230.0" y="322.0">255</text>
  <rect x="242" y="308" width="20" height="20" fill="rgb(0,0,255)" />
  <text x="252.0" y="322.0">255</text>
  <rect x="264" y="308" width="20" height="20" fill="rgb(0,0,255)" />
  <text x="274.0" y="322.0">255</text>
  <rect x="286" y="308" width="20" height="20" fill="rgb(0,0,255)" />
  <text x="296.0" y="322.0">255</text>
  <rect x="308" y="308" width="20" height="20" fill="rgb(0,0,255)" />
  <text x="318.0" y="322.0">255</text>
</svg>