<svg xmlns="http://www.w3.org/2000/svg" width="480" height="480" font-family="Arial" font-size="10" text-anchor="middle" fill="#000">
  <rect x="0" y="0" width="30" height="30" fill="white" />
  <text x="15.0" y="19.0">White</text>
  <rect x="32" y="0" width="30" height="30" fill="white" />
  <text x="47.0" y="19.0">White</text>
  <rect x="64" y="0" width="30" height="30" fill="white" />
  <text x="79.0" y="19.0">White</text>
  <rect x="96" y="0" width="30" height="30" fill="white" />
  <text x="111.0" y="19.0">White</text>
  <rect x="128" y="0" width="30" height="30" fill="white" />
  <text x="143.0" y="19.0">White</text>
  <rect x="160" y="0" width="30" height="30" fill="white" />
  <text x="175.0" y="19.0">White</text>
  <rect x="192" y="0" width="30" height="30" fill="white" />
  <text x="207.0" y="19.0">White</text>
  <rect x="224" y="0" width="30" height="30" fill="white" />
  <text x="239.0" y="19.0">White</text>
  <rect x="256" y="0" width="30" height="30" fill="white" />
  <text x="271.0" y="19.0">White</text>
  <rect x="288" y="0" width="30" height="30" fill="white" />
  <text x="303.0" y="19.0">White</text>
  <rect x="320" y="0" width="30" height="30" fill="white" />
  <text x="335.0" y="19.0">White</text>
  <rect x="352" y="0" width="30" height="30" fill="white" />
  <text x="367.0" y="19.0">White</text>
  <rect x="384" y="0" width="30" height="30" fill="white" />
  <text x="399.0" y="19.0">White</text>
  <rect x="416" y="0" width="30" height="30" fill="white" />
  <text x="431.0" y="19.0">White</text>
  <rect x="448" y="0" width="30" height="30" fill="white" />
  <text x="463.0" y="19.0">White</text>
  <rect x="0" y="32" width="30" height="30" fill="white" />
  <text x="15.0" y="51.0">White</text>
  <rect x="32" y="32" width="30" height="30" fill="white" />
  <text x="47.0" y="51.0">White</text>
  <rect x="64" y="32" width="30" height="30" fill="white" />
  <text x="79.0" y="51.0">White</text>
  <rect x="96" y="32" width="30" height="30" fill="black" />
  <text x="111.0" y="51.0">Black</text>
  <rect x="128" y="32" width="30" height="30" fill="black" />
  <text x="143.0" y="51.0">Black</text>
  <rect x="160" y="32" width="30" height="30" fill="white" />
  <text x="175.0" y="51.0">White</text>
  <rect x="192" y="32" width="30" height="30" fill="white" />
  <text x="207.0" y="51.0">White</text>
  <rect x="224" y="32" width="30" height="30" fill="white" />
  <text x="239.0" y="51.0">White</text>
  <rect x="256" y="32" width="30" height="30" fill="white" />
  <text x="271.0" y="51.0">White</text>
  <rect x="288" y="32" width="30" height="30" fill="white" />
  <text x="303.0" y="51.0">White</text>
  <rect x="320" y="32" width="30" height="30" fill="white" />
  <text x="335.0" y="51.0">White</text>
  <rect x="352" y="32" width="30" height="30" fill="white" />
  <text x="367.0" y="51.0">White</text>
  <rect x="384" y="32" width="30" height="30" fill="white" />
  <text x="399.0" y="51.0">White</text>
  <rect x="416" y="32" width="30" height="30" fill="white" />
  <text x="431.0" y="51.0">White</text>
  <rect x="448" y="32" width="30" height="30" fill="white" />
  <text x="463.0" y="51.0">White</text>
  <rect x="0" y="64" width="30" height="30" fill="white" />
  <text x="15.0" y="83.0">White</text>
  <rect x="32" y="64" width="30" height="30" fill="white" />
  <text x="47.0" y="83.0">White</text>
  <rect x="64" y="64" width="30" height="30" fill="black" />
  <text x="79.0" y="83.0">Black</text>
  <rect x="96" y="64" width="30" height="30" fill="black" />
  <text x="111.0" y="83.0">Black</text>
  <rect x="128" y="64" width="30" height="30" fill="black" />
  <text x="143.0" y="83.0">Black</text>
  <rect x="160" y="64" width="30" height="30" fill="black" />
  <text x="175.0" y="83.0">Black</text>
  <rect x="192" y="64" width="30" height="30" fill="white" />
  <text x="207.0" y="83.0">White</text>
  <rect x="224" y="64" width="30" height="30" fill="white" />
  <text x="239.0" y="83.0">White</text>
  <rect x="256" y="64" width="30" height="30" fill="white" />
  <text x="271.0" y="83.0">White</text>
  <rect x="288" y="64" width="30" height="30" fill="white" />
  <text x="303.0" y="83.0">White</text>
  <rect x="320" y="64" width="30" height="30" fill="white" />
  <text x="335.0" y="83.0">White</text>
  <rect x="352" y="64" width="30" height="30" fill="white" />
  <text x="367.0" y="83.0">White</text>
  <rect x="384" y="64" width="30" height="30" fill="white" />
  <text x="399.0" y="83.0">White</text>
  <rect x="416" y="64" width="30" height="30" fill="white" />
  <text x="431.0" y="83.0">White</text>
  <rect x="448" y="64" width="30" height="30" fill="white" />
  <text x="463.0" y="83.0">White</text>
  <rect x="0" y="96" width="30" height="30" fill="white" />
  <text x="15.0" y="115.0">White</text>
  <rect x="32" y="96" width="30" height="30" fill="black" />
  <text x="47.0" y="115.0">Black</text>
  <rect x="64" y="96" width="30" height="30" fill="black" />
  <text x="79.0" y="115.0">Black</text>
  <rect x="96" y="96" width="30" height="30" fill="black" />
  <text x="111.0" y="115.0">Black</text>
  <rect x="128" y="96" width="30" height="30" fill="black" />
  <text x="143.0" y="115.0">Black</text>
  <rect x="160" y="96" width="30" height="30" fill="black" />
  <text x="175.0" y="115.0">Black</text>
  <rect x="192" y="96" width="30" height="30" fill="black" />
  <text x="207.0" y="115.0">Black</text>
  <rect x="224" y="96" width="30" height="30" fill="white" />
  <text x="239.0" y="115.0">White</text>
  <rect x="256" y="96" width="30" height="30" fill="white" />
  <text x="271.0" y="115.0">White</text>
  <rect x="288" y="96" width="30" height="30" fill="white" />
  <text x="303.0" y="115.0">White</text>
  <rect x="320" y="96" width="30" height="30" fill="white" />
  <text x="335.0" y="115.0">White</text>
  <rect x="352" y="96" width="30" height="30" fill="white" />
  <text x="367.0" y="115.0">White</text>
  <rect x="384" y="96" width="30" height="30" fill="white" />
  <text x="399.0" y="115.0">White</text>
  <rect x="416" y="96" width="30" height="30" fill="white" />
  <text x="431.0" y="115.0">White</text>
  <rect x="448" y="96" width="30" height="30" fill="white" />
  <text x="463.0" y="115.0">White</text>
  <rect x="0" y="128" width="30" height="30" fill="white" />
  <text x="15.0" y="147.0">White</text>
  <rect x="32" y="128" width="30" height="30" fill="black" />
  <text x="47.0" y="147.0">Black</text>
  <rect x="64" y="128" width="30" height="30" fill="black" />
  <text x="79.0" y="147.0">Black</text>
  <rect x="96" y="128" width="30" height="30" fill="black" />
  <text x="111.0" y="147.0">Black</text>
  <rect x="128" y="128" width="30" height="30" fill="black" />
  <text x="143.0" y="147.0">Black</text>
  <rect x="160" y="128" width="30" height="30" fill="black" />
  <text x="175.0" y="147.0">Black</text>
  <rect x="192" y="128" width="30" height="30" fill="black" />
  <text x="207.0" y="147.0">Black</text>
  <rect x="224" y="128" width="30" height="30" fill="black" />
  <text x="239.0" y="147.0">Black</text>
  <rect x="256" y="128" width="30" height="30" fill="white" />
  <text x="271.0" y="147.0">White</text>
  <rect x="288" y="128" width="30" height="30" fill="white" />
  <text x="303.0" y="147.0">White</text>
  <rect x="320" y="128" width="30" height="30" fill="white" />
  <text x="335.0" y="147.0">White</text>
  <rect x="352" y="128" width="30" height="30" fill="white" />
  <text x="367.0" y="147.0">White</text>
  <rect x="384" y="128" width="30" height="30" fill="white" />
  <text x="399.0" y="147.0">White</text>
  <rect x="416" y="128" width="30" height="30" fill="white" />
  <text x="431.0" y="147.0">White</text>
  <rect x="448" y="128" width="30" height="30" fill="white" />
  <text x="463.0" y="147.0">White</text>
  <rect x="0" y="160" width="30" height="30" fill="white" />
  <text x="15.0" y="179.0">White</text>
  <rect x="32" y="160" width="30" height="30" fill="black" />
  <text x="47.0" y="179.0">Black</text>
  <rect x="64" y="160" width="30" height="30" fill="black" />
  <text x="79.0" y="179.0">Black</text>
  <rect x="96" y="160" width="30" height="30" fill="black" />
  <text x="111.0" y="179.0">Black</text>
  <rect x="128" y="160" width="30" height="30" fill="black" />
  <text x="143.0" y="179.0">Black</text>
  <rect x="160" y="160" width="30" height="30" fill="black" />
  <text x="175.0" y="179.0">Black</text>
  <rect x="192" y="160" width="30" height="30" fill="black" />
  <text x="207.0" y="179.0">Black</text>
  <rect x="224" y="160" width="30" height="30" fill="black" />
  <text x="239.0" y="179.0">Black</text>
  <rect x="256" y="160" width="30" height="30" fill="black" />
  <text x="271.0" y="179.0">Black</text>
  <rect x="288" y="160" width="30" height="30" fill="white" />
  <text x="303.0" y="179.0">White</text>
  <rect x="320" y="160" width="30" height="30" fill="white" />
  <text x="335.0" y="179.0">White</text>
  <rect x="352" y="160" width="30" height="30" fill="white" />
  <text x="367.0" y="179.0">White</text>
  <rect x="384" y="160" width="30" height="30" fill="white" />
  <text x="399.0" y="179.0">White</text>
  <rect x="416" y="160" width="30" height="30" fill="white" />
  <text x="431.0" y="179.0">White</text>
  <rect x="448" y="160" width="30" height="30" fill="white" />
  <text x="463.0" y="179.0">White</text>
  <rect x="0" y="192" width="30" height="30" fill="white" />
  <text x="15.0" y="211.0">White</text>
  <rect x="32" y="192" width="30" height="30" fill="black" />
  <text x="47.0" y="211.0">Black</text>
  <rect x="64" y="192" width="30" height="30" fill="black" />
  <text x="79.0" y="211.0">Black</text>
  <rect x="96" y="192" width="30" height="30" fill="black" />
  <text x="111.0" y="211.0">Black</text>
  <rect x="128" y="192" width="30" height="30" fill="black" />
  <text x="143.0" y="211.0">Black</text>
  <rect x="160" y="192" width="30" height="30" fill="black" />
  <text x="175.0" y="211.0">Black</text>
  <rect x="192" y="192" width="30" height="30" fill="black" />
  <text x="207.0" y="211.0">Black</text>
  <rect x="224" y="192" width="30" height="30" fill="black" />
  <text x="239.0" y="211.0">Black</text>
  <rect x="256" y="192" width="30" height="30" fill="black" />
  <text x="271.0" y="211.0">Black</text>
  <rect x="288" y="192" width="30" height="30" fill="black" />
  <text x="303.0" y="211.0">Black</text>
  <rect x="320" y="192" width="30" height="30" fill="white" />
  <text x="335.0" y="211.0">White</text>
  <rect x="352" y="192" width="30" height="30" fill="white" />
  <text x="367.0" y="211.0">White</text>
  <rect x="384" y="192" width="30" height="30" fill="white" />
  <text x="399.0" y="211.0">White</text>
  <rect x="416" y="192" width="30" height="30" fill="white" />
  <text x="431.0" y="211.0">White</text>
  <rect x="448" y="192" width="30" height="30" fill="white" />
  <text x="463.0" y="211.0">White</text>
  <rect x="0" y="224" width="30" height="30" fill="white" />
  <text x="15.0" y="243.0">White</text>
  <rect x="32" y="224" width="30" height="30" fill="black" />
  <text x="47.0" y="243.0">Black</text>
  <rect x="64" y="224" width="30" height="30" fill="black" />
  <text x="79.0" y="243.0">Black</text>
  <rect x="96" y="224" width="30" height="30" fill="black" />
  <text x="111.0" y="243.0">Black</text>
  <rect x="128" y="224" width="30" height="30" fill="black" />
  <text x="143.0" y="243.0">Black</text>
  <rect x="160" y="224" width="30" height="30" fill="black" />
  <text x="175.0" y="243.0">Black</text>
  <rect x="192" y="224" width="30" height="30" fill="black" />
  <text x="207.0" y="243.0">Black</text>
  <rect x="224" y="224" width="30" height="30" fill="black" />
  <text x="239.0" y="243.0">Black</text>
  <rect x="256" y="224" width="30" height="30" fill="black" />
  <text x="271.0" y="243.0">Black</text>
  <rect x="288" y="224" width="30" height="30" fill="black" />
  <text x="303.0" y="243.0">Black</text>
  <rect x="320" y="224" width="30" height="30" fill="black" />
  <text x="335.0" y="243.0">Black</text>
  <rect x="352" y="224" width="30" height="30" fill="white" />
  <text x="367.0" y="243.0">White</text>
  <rect x="384" y="224" width="30" height="30" fill="white" />
  <text x="399.0" y="243.0">White</text>
  <rect x="416" y="224" width="30" height="30" fill="white" />
  <text x="431.0" y="243.0">White</text>
  <rect x="448" y="224" width="30" height="30" fill="white" />
  <text x="463.0" y="243.0">White</text>
  <rect x="0" y="256" width="30" height="30" fill="white" />
  <text x="15.0" y="275.0">White</text>
  <rect x="32" y="256" width="30" height="30" fill="black" />
  <text x="47.0" y="275.0">Black</text>
  <rect x="64" y="256" width="30" height="30" fill="black" />
  <text x="79.0" y="275.0">Black</text>
  <rect x="96" y="256" width="30" height="30" fill="black" />
  <text x="111.0" y="275.0">Black</text>
  <rect x="128" y="256" width="30" height="30" fill="black" />
  <text x="143.0" y="275.0">Black</text>
  <rect x="160" y="256" width="30" height="30" fill="black" />
  <text x="175.0" y="275.0">Black</text>
  <rect x="192" y="256" width="30" height="30" fill="black" />
  <text x="207.0" y="275.0">Black</text>
  <rect x="224" y="256" width="30" height="30" fill="black" />
  <text x="239.0" y="275.0">Black</text>
  <rect x="256" y="256" width="30" height="30" fill="black" />
  <text x="271.0" y="275.0">Black</text>
  <rect x="288" y="256" width="30" height="30" fill="black" />
  <text x="303.0" y="275.0">Black</text>
  <rect x="320" y="256" width="30" height="30" fill="black" />
  <text x="335.0" y="275.0">Black</text>
  <rect x="352" y="256" width="30" height="30" fill="black" />
  <text x="367.0" y="275.0">Black</text>
  <rect x="384" y="256" width="30" height="30" fill="white" />
  <text x="399.0" y="275.0">White</text>
  <rect x="416" y="256" width="30" height="30" fill="white" />
  <text x="431.0" y="275.0">White</text>
  <rect x="448" y="256" width="30" height="30" fill="white" />
  <text x="463.0" y="275.0">White</text>
  <rect x="0" y="288" width="30" height="30" fill="white" />
  <text x="15.0" y="307.0">White</text>
  <rect x="32" y="288" width="30" height="30" fill="white" />
  <text x="47.0" y="307.0">White</text>
  <rect x="64" y="288" width="30" height="30" fill="black" />
  <text x="79.0" y="307.0">Black</text>
  <rect x="96" y="288" width="30" height="30" fill="black" />
  <text x="111.0" y="307.0">Black</text>
  <rect x="128" y="288" width="30" height="30" fill="black" />
  <text x="143.0" y="307.0">Black</text>
  <rect x="160" y="288" width="30" height="30" fill="black" />
  <text x="175.0" y="307.0">Black</text>
  <rect x="192" y="288" width="30" height="30" fill="black" />
  <text x="207.0" y="307.0">Black</text>
  <rect x="224" y="288" width="30" height="30" fill="black" />
  <text x="239.0" y="307.0">Black</text>
  <rect x="256" y="288" width="30" height="30" fill="black" />
  <text x="271.0" y="307.0">Black</text>
  <rect x="288" y="288" width="30" height="30" fill="black" />
  <text x="303.0" y="307.0">Black</text>
  <rect x="320" y="288" width="30" height="30" fill="black" />
  <text x="335.0" y="307.0">Black</text>
  <rect x="352" y="288" width="30" height="30" fill="black" />
  <text x="367.0" y="307.0">Black</text>
  <rect x="384" y="288" width="30" height="30" fill="black" />
  <text x="399.0" y="307.0">Black</text>
  <rect x="416" y="288" width="30" height="30" fill="white" />
  <text x="431.0" y="307.0">White</text>
  <rect x="448" y="288" width="30" height="30" fill="white" />
  <text x="463.0" y="307.0">White</text>
  <rect x="0" y="320" width="30" height="30" fill="white" />
  <text x="15.0" y="339.0">White</text>
  <rect x="32" y="320" width="30" height="30" fill="white" />
  <text x="47.0" y="339.0">White</text>
  <rect x="64" y="320" width="30" height="30" fill="black" />
  <text x="79.0" y="339.0">Black</text>
  <rect x="96" y="320" width="30" height="30" fill="black" />
  <text x="111.0" y="339.0">Black</text>
  <rect x="128" y="320" width="30" height="30" fill="black" />
  <text x="143.0" y="339.0">Black</text>
  <rect x="160" y="320" width="30" height="30" fill="black" />
  <text x="175.0" y="339.0">Black</text>
  <rect x="192" y="320" width="30" height="30" fill="black" />
  <text x="207.0" y="339.0">Black</text>
  <rect x="224" y="320" width="30" height="30" fill="black" />
  <text x="239.0" y="339.0">Black</text>
  <rect x="256" y="320" width="30" height="30" fill="black" />
  <text x="271.0" y="339.0">Black</text>
  <rect x="288" y="320" width="30" height="30" fill="black" />
  <text x="303.0" y="339.0">Black</text>
  <rect x="320" y="320" width="30" height="30" fill="black" />
  <text x="335.0" y="339.0">Black</text>
  <rect x="352" y="320" width="30" height="30" fill="black" />
  <text x="367.0" y="339.0">Black</text>
  <rect x="384" y="320" width="30" height="30" fill="black" />
  <text x="399.0" y="339.0">Black</text>
  <rect x="416" y="320" width="30" height="30" fill="black" />
  <text x="431.0" y="339.0">Black</text>
  <rect x="448" y="320" width="30" height="30" fill="white" />
  <text x="463.0" y="339.0">White</text>
  <rect x="0" y="352" width="30" height="30" fill="white" />
  <text x="15.0" y="371.0">White</text>
  <rect x="32" y="352" width="30" height="30" fill="white" />
  <text x="47.0" y="371.0">White</text>
  <rect x="64" y="352" width="30" height="30" fill="white" />
  <text x="79.0" y="371.0">White</text>
  <rect x="96" y="352" width="30" height="30" fill="black" />
  <text x="111.0" y="371.0">Black</text>
  <rect x="128" y="352" width="30" height="30" fill="black" />
  <text x="143.0" y="371.0">Black</text>
  <rect x="160" y="352" width="30" height="30" fill="black" />
  <text x="175.0" y="371.0">Black</text>
  <rect x="192" y="352" width="30" height="30" fill="black" />
  <text x="207.0" y="371.0">Black</text>
  <rect x="224" y="352" width="30" height="30" fill="black" />
  <text x="239.0" y="371.0">Black</text>
  <rect x="256" y="352" width="30" height="30" fill="black" />
  <text x="271.0" y="371.0">Black</text>
  <rect x="288" y="352" width="30" height="30" fill="black" />
  <text x="303.0" y="371.0">Black</text>
  <rect x="320" y="352" width="30" height="30" fill="black" />
  <text x="335.0" y="371.0">Black</text>
  <rect x="352" y="352" width="30" height="30" fill="black" />
  <text x="367.0" y="371.0">Black</text>
  <rect x="384" y="352" width="30" height="30" fill="black" />
  <text x="399.0" y="371.0">Black</text>
  <rect x="416" y="352" width="30" height="30" fill="black" />
  <text x="431.0" y="371.0">Black</text>
  <rect x="448" y="352" width="30" height="30" fill="white" />
  <text x="463.0" y="371.0">White</text>
  <rect x="0" y="384" width="30" height="30" fill="white" />
  <text x="15.0" y="403.0">White</text>
  <rect x="32" y="384" width="30" height="30" fill="white" />
  <text x="47.0" y="403.0">White</text>
  <rect x="64" y="384" width="30" height="30" fill="white" />
  <text x="79.0" y="403.0">White</text>
  <rect x="96" y="384" width="30" height="30" fill="white" />
  <text x="111.0" y="403.0">White</text>
  <rect x="128" y="384" width="30" height="30" fill="black" />
  <text x="143.0" y="403.0">Black</text>
  <rect x="160" y="384" width="30" height="30" fill="black" />
  <text x="175.0" y="403.0">Black</text>
  <rect x="192" y="384" width="30" height="30" fill="black" />
  <text x="207.0" y="403.0">Black</text>
  <rect x="224" y="384" width="30" height="30" fill="black" />
  <text x="239.0" y="403.0">Black</text>
  <rect x="256" y="384" width="30" height="30" fill="black" />
  <text x="271.0" y="403.0">Black</text>
  <rect x="288" y="384" width="30" height="30" fill="black" />
  <text x="303.0" y="403.0">Black</text>
  <rect x="320" y="384" width="30" height="30" fill="black" />
  <text x="335.0" y="403.0">Black</text>
  <rect x="352" y="384" width="30" height="30" fill="black" />
  <text x="367.0" y="403.0">Black</text>
  <rect x="384" y="384" width="30" height="30" fill="black" />
  <text x="399.0" y="403.0">Black</text>
  <rect x="416" y="384" width="30" height="30" fill="white" />
  <text x="431.0" y="403.0">White</text>
  <rect x="448" y="384" width="30" height="30" fill="white" />
  <text x="463.0" y="403.0">White</text>
  <rect x="0" y="416" width="30" height="30" fill="white" />
  <text x="15.0" y="435.0">White</text>
  <rect x="32" y="416" width="30" height="30" fill="white" />
  <text x="47.0" y="435.0">White</text>
  <rect x="64" y="416" width="30" height="30" fill="white" />
  <text x="79.0" y="435.0">White</text>
  <rect x="96" y="416" width="30" height="30" fill="white" />
  <text x="111.0" y="435.0">White</text>
  <rect x="128" y="416" width="30" height="30" fill="white" />
  <text x="143.0" y="435.0">White</text>
  <rect x="160" y="416" width="30" height="30" fill="white" />
  <text x="175.0" y="435.0">White</text>
  <rect x="192" y="416" width="30" height="30" fill="black" />
  <text x="207.0" y="435.0">Black</text>
  <rect x="224" y="416" width="30" height="30" fill="black" />
  <text x="239.0" y="435.0">Black</text>
  <rect x="256" y="416" width="30" height="30" fill="black" />
  <text x="271.0" y="435.0">Black</text>
  <rect x="288" y="416" width="30" height="30" fill="black" />
  <text x="303.0" y="435.0">Black</text>
  <rect x="320" y="416" width="30" height="30" fill="black" />
  <text x="335.0" y="435.0">Black</text>
  <rect x="352" y="416" width="30" height="30" fill="black" />
  <text x="367.0" y="435.0">Black</text>
  <rect x="384" y="416" width="30" height="30" fill="white" />
  <text x="399.0" y="435.0">White</text>
  <rect x="416" y="416" width="30" height="30" fill="white" />
  <text x="431.0" y="435.0">White</text>
  <rect x="448" y="416" width="30" height="30" fill="white" />
  <text x="463.0" y="435.0">White</text>
  <rect x="0" y="448" width="30" height="30" fill="white" />
  <text x="15.0" y="467.0">White</text>
  <rect x="32" y="448" width="30" height="30" fill="white" />
  <text x="47.0" y="467.0">White</text>
  <rect x="64" y="448" width="30" height="30" fill="white" />
  <text x="79.0" y="467.0">White</text>
  <rect x="96" y="448" width="30" height="30" fill="white" />
  <text x="111.0" y="467.0">White</text>
  <rect x="128" y="448" width="30" height="30" fill="white" />
  <text x="143.0" y="467.0">White</text>
  <rect x="160" y="448" width="30" height="30" fill="white" />
  <text x="175.0" y="467.0">White</text>
  <rect x="192" y="448" width="30" height="30" fill="white" />
  <text x="207.0" y="467.0">White</text>
  <rect x="224" y="448" width="30" height="30" fill="white" />
  <text x="239.0" y="467.0">White</text>
  <rect x="256" y="448" width="30" height="30" fill="white" />
  <text x="271.0" y="467.0">White</text>
  <rect x="288" y="448" width="30" height="30" fill="white" />
  <text x="303.0" y="467.0">White</text>
  <rect x="320" y="448" width="30" height="30" fill="white" />
  <text x="335.0" y="467.0">White</text>
  <rect x="352" y="448" width="30" height="30" fill="white" />
  <text x="367.0" y="467.0">White</text>
  <rect x="384" y="448" width="30" height="30" fill="white" />
  <text x="399.0" y="467.0">White</text>
  <rect x="416" y="448" width="30" height="30" fill="white" />
  <text x="431.0" y="467.0">White</text>
  <rect x="448" y="448" width="30" height="30" fill="white" />
  <text x="463.0" y="467.0">White</text>
</svg>