<?xml version="1.0" encoding="UTF-8" standalone="no"?>
<!-- Created with Inkscape (http://www.inkscape.org/) -->

<svg
   width="350px"
   height="160px"
   viewBox="0 0 350 160"
   version="1.1"
   id="SVGRoot"
   sodipodi:docname="slice-of-fMRI-imaging.svg"
   inkscape:version="1.1.2 (0a00cf5339, 2022-02-04)"
   xmlns:inkscape="http://www.inkscape.org/namespaces/inkscape"
   xmlns:sodipodi="http://sodipodi.sourceforge.net/DTD/sodipodi-0.dtd"
   xmlns:xlink="http://www.w3.org/1999/xlink"
   xmlns="http://www.w3.org/2000/svg"
   xmlns:svg="http://www.w3.org/2000/svg">
  <sodipodi:namedview
     id="namedview1624"
     pagecolor="#505050"
     bordercolor="#eeeeee"
     borderopacity="1"
     inkscape:pageshadow="0"
     inkscape:pageopacity="0"
     inkscape:pagecheckerboard="0"
     inkscape:document-units="px"
     showgrid="false"
     inkscape:zoom="0.53629349"
     inkscape:cx="396.23826"
     inkscape:cy="560.32752"
     inkscape:window-width="1534"
     inkscape:window-height="836"
     inkscape:window-x="0"
     inkscape:window-y="0"
     inkscape:window-maximized="1"
     inkscape:current-layer="layer1" />
  <defs
     id="defs1619">
    <linearGradient
       inkscape:collect="always"
       xlink:href="#linearGradient114767"
       id="linearGradient114761"
       x1="128.30038"
       y1="185.94942"
       x2="119.6387"
       y2="119.525"
       gradientUnits="userSpaceOnUse" />
    <linearGradient
       inkscape:collect="always"
       id="linearGradient114767">
      <stop
         style="stop-color:#666666;stop-opacity:1;"
         offset="0"
         id="stop114763" />
      <stop
         style="stop-color:#666666;stop-opacity:0;"
         offset="1"
         id="stop114765" />
    </linearGradient>
  </defs>
  <g
     inkscape:label="Layer 1"
     inkscape:groupmode="layer"
     id="layer1">
    <g
       id="g1837"
       transform="matrix(1.6905537,0,0,1.6905537,-4.6517775,-256.59918)">
      <path
         style="fill:#333333;stroke:#000000;stroke-width:0.181333px;stroke-linecap:butt;stroke-linejoin:miter;stroke-opacity:1"
         d="M 7.8048599,208.27641 H 141.86848 v 16.74912 H 7.8048599 Z"
         id="path66-3" />
      <path
         style="fill:url(#linearGradient114761);fill-opacity:1;stroke:#000000;stroke-width:0.264583px;stroke-linecap:butt;stroke-linejoin:miter;stroke-opacity:1"
         d="M 7.8048599,208.27641 92.11522,169.12308 205.63323,167.97449 141.86848,208.27641 H 7.8048599 v 0"
         id="path432-6"
         sodipodi:nodetypes="cccccc" />
      <path
         style="fill:#1a1a1a;stroke:#000000;stroke-width:0.264583px;stroke-linecap:butt;stroke-linejoin:miter;stroke-opacity:1"
         d="m 205.63323,167.97449 -63.76475,40.30192 v 16.74912 l 62.99064,-41.30309 0.77411,-15.74795 v 0"
         id="path1018-7"
         sodipodi:nodetypes="cccccc" />
    </g>
    <path
       id="path100594"
       class="s0"
       d="m 178.58257,87.002068 c -2.3525,-0.13085 -0.65348,-1.96045 3.79015,-4.31293 2.87526,-1.43763 3.39802,-1.82969 2.61386,-1.82969 -0.78416,0 -2.09111,0.65345 -4.4436,1.82969 -6.27329,3.13665 -11.37037,4.57434 -13.98421,3.65944 -1.56835,-0.52279 -3.00598,-3.65944 -2.74462,-5.75053 0.39221,-2.09108 4.70498,-3.65943 14.63776,-5.22774 3.00596,-0.3922 5.8812,-0.91488 6.27329,-1.04557 1.56835,-0.52276 -0.52278,-1.56833 -3.13664,-1.56833 -1.30697,0 -4.96638,0.52274 -8.10303,1.04557 -11.76247,1.82969 -11.63176,1.56833 3.39805,-6.01194 6.27331,-3.13668 12.02382,-6.01194 12.93867,-6.40398 0.91486,-0.26131 5.22774,-1.30698 9.54068,-2.22184 4.31286,-0.78416 8.88719,-1.82968 10.06341,-2.22177 3.13665,-0.91488 5.22776,-2.2218 4.70497,-2.87527 -0.65344,-0.65344 -4.70497,-0.3922 -13.72283,0.91488 l -7.18818,1.17621 -0.65345,-0.78417 c -0.91487,-0.91485 -3.52876,-1.30692 -6.66541,-1.0455 -1.69902,0.13084 -2.61388,0.39219 -3.92083,1.0455 -1.43763,0.65347 -1.56832,1.04557 -0.52274,2.22182 0.65344,0.78414 1.69902,1.82972 2.35247,2.22183 l 1.04552,0.65345 -6.53466,3.65941 c -9.54066,5.09709 -16.20607,7.97235 -22.74075,9.40996 -3.26734,0.78417 -7.05746,0.91486 -8.88719,0.26131 -1.56833,-0.5228 -1.96039,-0.39221 -7.18818,1.30692 -4.18217,1.56834 -5.22774,2.22179 -4.96634,3.39807 0.26131,0.91486 -0.13081,1.17621 -2.22182,2.09107 -3.39801,1.56835 -9.27927,3.13665 -12.54663,3.65941 -1.96038,0.13085 -3.2673,0.13085 -5.09703,-0.26131 -3.52877,-0.65345 -5.0971,-0.13085 -3.13667,1.17623 1.82974,1.43762 1.30694,1.56834 -7.31887,2.22178 -13.069376,0.91489 -14.506996,-1.04551 -4.18217,-5.48914 3.13665,-1.30691 3.92081,-1.69895 3.13665,-1.69895 -1.30697,0 -3.13665,0.65344 -9.279306,3.6594 -5.48914,2.74453 -5.48914,2.74453 -7.05747,2.6139 -3.65941,-0.39223 -10.45548,-3.26737 -10.45548,-4.31294 -0.1309,-1.30692 0.78416,-1.82972 5.61984,-3.26735 4.70499,-1.30694 8.2337,-1.96038 12.02381,-2.09108 2.09114,0 3.52876,-0.26131 4.05152,-0.52276 1.43763,-0.65351 -6.27331,-0.39221 -12.15451,0.52276 -2.8753,0.39221 -5.22779,0.65346 -5.22779,0.52275 -0.1309,-0.39219 4.57428,-3.92081 7.97234,-5.88119 5.75055,-3.52878 11.501046,-5.22781 15.291206,-4.5743 0.78417,0 3.39803,1.04552 5.7505,2.09109 2.48321,0.91488 4.83569,1.82975 5.48915,1.69903 0.52281,0 2.09113,-0.65346 3.39806,-1.17626 1.82973,-0.78416 2.35249,-1.30693 2.35249,-1.96039 -0.13083,-1.17627 -4.57428,-2.48318 -9.80207,-2.7446 -5.09704,-0.2613 -5.22774,-0.65344 -0.78417,-1.69903 2.74461,-0.65347 3.79018,-0.78416 7.44959,-0.78416 2.4832,0.13084 7.58023,0.13084 11.63175,0.13084 h 7.31889 l -1.69905,1.30697 c -2.74458,1.96038 -1.69902,3.13665 3.00596,3.2673 5.0971,0.13085 7.84164,-0.13052 9.01791,-0.91478 0.52275,-0.39222 0.52275,-0.9149 -0.13081,-1.17628 -1.30697,-0.65349 -0.78416,-1.56835 1.69902,-2.87527 1.69898,-0.91486 2.3525,-1.04557 5.22774,-1.43762 8.10305,-1.04558 6.14262,-3.79017 -2.35249,-3.13666 -1.56831,0 -7.18818,0.91481 -12.67732,1.69899 -10.97828,1.82972 -13.72284,1.96043 -14.37635,1.04557 -0.65346,-0.91489 1.96045,-4.05152 4.70498,-5.88121 4.18223,-2.7446 13.72289,-6.53471 19.21204,-7.58027 1.43763,-0.39222 2.22179,-0.39222 3.26736,-0.13085 1.43762,0.26131 3.13664,0 4.70499,-0.78416 0.52274,-0.26131 2.74455,-1.04552 5.09703,-1.8297 4.05152,-1.30696 8.4951,-2.35246 10.32483,-2.35246 1.30694,0 2.48321,1.96036 1.96043,3.398 -0.39222,1.17628 0.13084,1.56832 1.43764,0.91486 0.26131,-0.2613 0.91486,-1.17622 1.1762,-2.09108 0.39222,-1.04559 1.30698,-2.22178 1.96044,-2.61389 2.48319,-1.69903 6.92677,-2.74457 12.93867,-3.00596 3.52877,-0.26131 3.52877,-0.26131 3.52877,0.78415 0.13085,0.78416 -1.43763,2.87525 -3.39807,4.705 -0.52274,0.52276 0.65346,0.52276 1.56835,0 0.91486,-0.3922 6.0119,-4.9664 7.05746,-6.14262 0.3922,-0.52276 0.91486,-1.04555 1.04558,-1.04555 0.52274,-0.39223 4.57425,-0.13085 5.22772,0.26129 0.91487,0.65346 -0.13085,1.43764 -3.65942,2.74456 -4.96637,1.69903 -3.13664,1.69903 2.48321,-0.13051 9.802,-3.26736 13.06937,-3.79019 12.2852,-2.22184 -0.2613,0.52281 -1.56833,1.69902 -2.87523,2.74459 -1.96043,1.43762 -2.22184,1.69903 -1.17627,1.69903 2.09106,-0.13085 -0.78416,1.04552 -7.05749,3.13665 -3.13664,0.91488 -5.75055,1.82967 -5.61984,1.96038 0,0 1.69903,-0.13085 3.65947,-0.39219 3.398,-0.52281 3.65942,-0.52281 4.05147,-0.13085 0.26131,0.26131 -0.39221,0.65348 -3.26731,2.09109 -3.26735,1.56833 -3.92083,1.82975 -7.58028,2.74461 -7.58022,1.69902 -7.44954,2.61385 0.65347,3.00594 l 4.96638,0.2613 3.39806,-0.78415 c 6.27329,-1.43769 7.58022,-2.4832 4.05148,-3.13666 l -2.22181,-0.39221 5.61983,-3.26737 c 2.8753,-1.69902 5.61984,-3.5287 5.88125,-3.92081 0.65347,-0.91486 2.61386,-1.96037 7.58024,-3.79009 4.57429,-1.82976 8.36439,-2.87526 10.06341,-2.87526 1.43763,0 2.35249,1.43761 1.82974,2.48319 -0.39221,0.91482 1.04555,1.17623 1.69902,0.39221 1.17626,-1.17623 1.96039,-1.69903 3.39802,-2.09109 2.09113,-0.65346 3.26735,-0.65346 6.14264,0 2.74457,0.65348 2.87526,0.52276 -4.70498,4.05152 -6.40399,3.00597 -6.40399,3.13665 -5.48915,3.13665 0.65347,-0.13085 2.22181,-0.65351 4.44359,-1.69903 3.79013,-1.69904 9.54066,-3.79011 10.7169,-3.79011 0.91486,0 1.69902,0.78416 1.43761,1.56833 -0.13034,0.3922 -0.91483,0.65345 -3.6594,1.56831 -1.96041,0.65347 -3.65943,1.30693 -3.92083,1.43764 -1.04557,0.65346 0.91486,0.26131 5.35843,-1.17626 2.61392,-0.78419 5.48917,-1.56835 6.53474,-1.69906 1.69902,-0.2613 2.09107,-0.13083 3.79009,1.04557 1.69905,1.30693 1.69905,1.43765 0.26131,2.22179 -0.91485,0.52282 -1.56832,0.91488 -1.56832,1.04558 0.13085,0 1.69904,-0.13085 3.398,-0.3922 3.65948,-0.52276 4.70499,-0.39222 4.44363,0.65351 -0.2613,0.78416 -3.65947,2.87525 -6.27331,3.65941 -3.00595,1.04557 -7.05746,1.82973 -9.27927,1.9604 -1.17628,0 -2.09114,0.13084 -2.48316,0.26128 -0.65347,0.52278 5.48914,0.78418 9.27924,0.52278 3.65943,-0.26132 4.96639,-0.65348 6.01189,-1.56835 0.78419,-0.65344 1.30699,-0.91481 2.22182,-1.04551 1.96042,-0.26131 2.48317,0.39221 1.69902,2.09108 -0.78417,1.82975 -1.43763,2.4832 -4.44359,3.7901 -2.35247,1.17628 -3.52874,2.09116 -2.87523,2.74463 0.26131,0.39218 0.13083,0.39218 -1.56834,0.39218 -5.75054,0.13086 -10.19412,0 -11.63181,-0.2613 -2.09109,-0.52278 -2.74454,-0.52278 -3.5287,0 -0.52276,0.2613 2.48318,1.17622 5.22772,1.56835 2.35252,0.13049 -8.10298,0.26131 -11.10897,0 -3.2673,-0.26132 -7.31883,-1.17628 -8.75644,-2.09113 l -0.91486,-0.39222 -1.56835,1.1762 q -3.52876,2.61392 2.22179,3.65948 c 0.26131,0 -0.78416,0.39221 -2.48318,0.78417 -2.48321,0.65345 -3.39807,0.78416 -5.35844,0.65345 -1.30693,0 -2.4832,0 -2.61391,0.13086 -0.65343,0.39221 -0.39221,2.87525 0.39221,3.65941 1.69902,1.43762 6.1426,0.91486 10.45548,-1.30691 1.82974,-0.78417 3.13666,-1.17627 10.32483,-2.61391 9.93279,-1.82972 15.94469,-2.74459 16.85956,-2.35248 0.39219,0.26131 0.13086,0.91487 -0.65348,1.56831 -0.78415,0.65347 -2.22183,2.0911 -3.13664,3.13667 -2.22183,2.48318 -3.13665,3.13664 -5.22779,3.65941 -1.17625,0.26131 -2.48321,0.91488 -4.5743,2.22178 -5.75054,3.65947 -12.5466,6.40402 -18.29716,7.31889 -2.74456,0.52275 -4.31286,0.39219 -9.01785,-0.26131 -1.82974,-0.26131 -2.35249,0.26131 -1.43763,1.69903 0.65347,0.91486 0.52275,1.43761 -1.04556,2.35248 -1.04557,0.65347 -2.87526,1.56833 -4.18222,1.96043 -2.87526,0.91489 -11.10896,2.61385 -13.98425,2.87526 -5.35845,0.65345 -5.88119,-1.96037 -1.30692,-5.75056 1.30692,-1.1762 1.96037,-2.09106 1.56833,-2.09106 -0.65346,-0.13085 -1.17627,0.13085 -2.7446,1.30691 -1.04552,0.91487 -3.26733,2.35249 -4.96635,3.39807 -2.74459,1.69902 -3.52874,1.96043 -6.53471,2.74457 -3.39804,0.78416 -4.31286,0.78416 -7.31886,0.52276 z"
       style="opacity:0.5;fill:#000000;stroke:#000000;stroke-width:2.74456;stroke-linecap:round;stroke-linejoin:round;paint-order:stroke fill markers" />
  </g>
</svg>
