<?xml version="1.0" encoding="UTF-8" standalone="no"?>
<!-- Created with Inkscape (http://www.inkscape.org/) -->

<svg
   width="575px"
   height="160px"
   viewBox="0 0 575 160"
   version="1.1"
   id="SVGRoot"
   sodipodi:docname="smoothing-single.svg"
   inkscape:version="1.1.2 (0a00cf5339, 2022-02-04)"
   xmlns:inkscape="http://www.inkscape.org/namespaces/inkscape"
   xmlns:sodipodi="http://sodipodi.sourceforge.net/DTD/sodipodi-0.dtd"
   xmlns="http://www.w3.org/2000/svg"
   xmlns:svg="http://www.w3.org/2000/svg">
  <sodipodi:namedview
     id="namedview46296"
     pagecolor="#505050"
     bordercolor="#eeeeee"
     borderopacity="1"
     inkscape:pageshadow="0"
     inkscape:pageopacity="0"
     inkscape:pagecheckerboard="0"
     inkscape:document-units="px"
     showgrid="false"
     inkscape:zoom="0.53629349"
     inkscape:cx="385.98268"
     inkscape:cy="532.35776"
     inkscape:window-width="1534"
     inkscape:window-height="836"
     inkscape:window-x="0"
     inkscape:window-y="0"
     inkscape:window-maximized="1"
     inkscape:current-layer="layer1"
     inkscape:lockguides="true" />
  <defs
     id="defs46291" />
  <g
     inkscape:label="Layer 1"
     inkscape:groupmode="layer"
     id="layer1">
    <path
       style="display:inline;fill:none;stroke:#ff004e;stroke-width:2.13543;stroke-linecap:round;stroke-linejoin:round;stroke-miterlimit:4;stroke-dasharray:none;stroke-opacity:1"
       d="m 6.126277,101.65716 c 0,0 1.189135,-6.1601 3.602593,-6.29314 5.685187,-0.31338 6.633858,14.00973 11.16693,13.26578 5.566294,-0.91352 6.867706,-14.85275 6.867706,-14.85275 2.472049,-0.0803 1.609689,18.16027 1.609689,18.16027 l 4.11852,-15.24884 c 0.837956,-3.10254 1.343317,7.83352 4.478954,8.53757 4.384864,0.98454 6.301164,-7.60506 10.766145,-8.11525 3.697968,-0.42255 6.916628,7.52219 10.203053,4.53645 0,0 5.227169,-68.389227 13.313931,-82.171657 0,0 -1.91537,17.43024 3.24174,23.3663 1.26168,1.45225 3.74003,2.23709 5.54962,1.58419 2.10561,-0.75971 1.57542,-5.84725 3.79293,-5.54169 5.09759,0.70242 -0.19354,14.43656 4.94886,14.62253 2.787122,0.10079 0.473092,-7.42829 3.247692,-7.71078 5.06896,-0.51609 0.87832,11.22329 5.93984,10.63865 7.08289,-0.81812 6.02422,-17.9717 10.47704,-17.96677 5.12216,0.006 5.47961,41.81182 9.3148,62.534847 1.93741,10.46856 2.18225,21.64402 6.91175,31.18216 1.86572,3.76266 5.65166,5.31058 8.14103,9.61617 1.05312,1.82147 2.431,-3.4957 4.04474,-4.84576 1.11676,-0.93429 2.9057,-1.01016 3.79491,-2.16314 3.69198,-4.78714 2.99896,-17.17999 7.18363,-17.768 3.72888,-0.52396 -1.21476,10.02155 2.53564,10.35859 2.0003,0.17976 1.60639,-4.62603 3.60458,-4.82791 2.07808,-0.20995 0.31414,4.04371 2.39899,4.16965 4.29506,0.25946 1.21723,-20.64254 3.17641,-27.9543 0.57813,-2.15762 4.5214,-2.1827 5.10747,-4.33818 4.1433,-15.238457 -0.9736,-29.223177 8.89645,-49.373577 1.44093,-2.94177 3.20024,6.00696 5.90452,7.85552 2.21198,1.51204 5.81203,0.30698 7.74052,2.1671 3.5234,3.39848 -0.42405,13.78746 4.46706,13.99004 5.14223,0.21298 0.82476,-13.39532 5.8966,-14.2696 1.84696,-0.31838 1.90148,4.39365 3.76319,4.17758 4.17772,-0.48488 1.87698,-11.3449 6.07306,-11.05958 4.13585,0.28122 0.42177,10.65373 4.45517,11.61078 2.06436,0.48984 4.26125,-6.35899 4.70697,-4.28465 8.36407,38.925607 3.58053,36.901687 9.60228,80.704447 0.53959,3.92501 5.21851,-10.67891 5.21851,-10.67891 l 1.80426,13.19497 c 0,0 0.8461,-8.01096 3.71165,-10.24072 1.13487,-0.88307 3.24012,0.55156 4.29258,-0.42827 2.03663,-1.89608 1.41962,-8.22628 1.41962,-8.22628 0,0 -1.65481,10.04766 1.9391,10.93467 4.32733,1.06803 6.74941,-6.35079 8.19259,-10.56787 1.32226,-3.86374 0.88834,-18.80797 1.82259,-14.52803 l 3.19953,14.65754 c 0.88141,4.03786 6.60288,-5.73849 6.89752,-9.49302 1.19808,-15.26678 -0.12987,-7.5074 8.58758,-70.627157 0.33473,-2.42363 4.05874,-5.00263 6.23168,-3.87819 2.25732,1.1681 0.45006,7.61164 0.45006,7.61164 l 5.10947,-8.80722 c 0,0 0.14152,6.30744 2.3614,7.9606 1.67237,1.24542 4.74373,-1.45006 6.25547,-0.0139 2.57041,2.44189 -2.79705,9.37547 0.52146,10.62339 3.45352,1.29869 4.02568,-8.36443 7.69293,-7.95862 5.85043,0.64739 5.76429,12.65763 11.62735,12.13683 0,0 -2.07537,-10.24543 1.91523,-10.47681 11.87404,-0.68849 6.03146,42.646757 12.1554,63.210457 1.50242,5.04499 0.76068,13.991 5.9878,14.61262 2.79161,0.33198 1.53806,-4.74746 3.88534,-3.20035 3.81676,2.51566 5.99255,12.11662 5.99255,12.11662 1.39239,4.44101 1.36726,-29.53953 3.03881,-22.85592 l 5.06897,20.26807 3.97885,-16.08537 c 0.66808,-2.70087 2.59761,6.44805 5.37911,6.38237 3.94165,-0.0931 5.79309,-5.70612 7.18734,-9.39411 2.91214,-7.70301 0.12298,-16.56698 1.72298,-24.64515 2.86645,-14.472347 8.2753,-41.070357 13.97616,-41.995897 6.62895,-1.07621 10.70736,18.67798 14.96752,13.48643 0,0 0.49919,-1.20246 1.04291,-1.27092 3.12091,-0.39295 4.62895,6.59409 7.60768,5.58333 2.37472,-0.80581 1.17801,-7.34482 3.68276,-7.22303 6.08108,0.29569 0.28174,11.2747 5.28566,11.36551 1.93562,0.0351 1.39268,-3.56991 3.28872,-3.17888 3.41033,0.70333 -0.60013,7.46971 1.3423,10.35969 1.27675,1.89956 5.59721,1.13059 5.97194,3.38846 4.64089,27.962587 2.66174,61.960477 8.0637,63.758177 3.59749,1.19719 0.21618,-10.5792 4.00707,-10.6452 3.57155,-0.0622 0.55052,9.95398 4.12207,9.89176 3.28461,-0.0572 0.25528,-8.55544 3.47173,-9.22359 1.71195,-0.35562 2.63887,5.19352 3.65018,3.76716 5.39256,-7.6057 4.5281,-22.49432 14.1061,-33.60018 3.89127,-4.51201 3.17723,20.98813 3.17723,20.98813 4.45985,-0.09 4.19236,-43.404057 13.19894,-79.774557 1.17999,-4.76506 7.72521,-7.06091 12.29085,-6.38037 8.16611,1.21721 8.0831,16.24893 16.33837,16.11633 4.03429,-0.0648 2.63833,-15.21862 7.78136,-16.49107 2.0068,-0.49651 -2.01052,5.7207 0,6.20194 4.88466,1.16921 2.18327,-15.35952 6.82253,-13.43488 4.58408,1.90174 1.44718,25.50155 4.36,37.86986 1.49735,6.35798 5.27113,12.04362 6.68174,18.421407 2.65586,12.00793 1.19113,39.76297 5.20094,39.76297 2.5692,0 3.12052,-8.78701 3.12052,-8.78701 4.9101,-0.0772 1.44935,15.52582 7.10803,15.41958 6.55543,-0.12308 1.03244,-17.52379 7.55812,-18.15969 1.63245,-0.15907 2.40358,6.60071 3.09109,5.11157 3.51113,-7.60505 12.15599,-35.07833 12.15599,-35.07833"
       id="path1899"
       sodipodi:nodetypes="cssscsssscssssssssasasssssssssssssssssccsscsssssssccssssssssssscsssssssssssssssssssssssssssssssssc" />
  </g>
</svg>
