<?xml version="1.0" encoding="UTF-8" standalone="no"?>
<!-- Created with Inkscape (http://www.inkscape.org/) -->

<svg
   width="575px"
   height="160px"
   viewBox="0 0 575 160"
   version="1.1"
   id="SVGRoot"
   sodipodi:docname="smoothing-group-smoothed.svg"
   inkscape:version="1.1.2 (0a00cf5339, 2022-02-04)"
   xmlns:inkscape="http://www.inkscape.org/namespaces/inkscape"
   xmlns:sodipodi="http://sodipodi.sourceforge.net/DTD/sodipodi-0.dtd"
   xmlns="http://www.w3.org/2000/svg"
   xmlns:svg="http://www.w3.org/2000/svg">
  <sodipodi:namedview
     id="namedview46296"
     pagecolor="#505050"
     bordercolor="#eeeeee"
     borderopacity="1"
     inkscape:pageshadow="0"
     inkscape:pageopacity="0"
     inkscape:pagecheckerboard="0"
     inkscape:document-units="px"
     showgrid="false"
     inkscape:zoom="1.28"
     inkscape:cx="271.875"
     inkscape:cy="244.92188"
     inkscape:window-width="1534"
     inkscape:window-height="836"
     inkscape:window-x="0"
     inkscape:window-y="0"
     inkscape:window-maximized="1"
     inkscape:current-layer="layer1"
     inkscape:lockguides="true" />
  <defs
     id="defs46291" />
  <g
     inkscape:label="Layer 1"
     inkscape:groupmode="layer"
     id="layer1">
    <path
       style="fill:none;stroke:#4c15cb;stroke-width:2.13543;stroke-linecap:round;stroke-linejoin:round;stroke-miterlimit:4;stroke-dasharray:none;stroke-opacity:1"
       d="m 2.5268585,77.75938 c 0,0 32.1662185,-0.0197 49.3544925,-0.0303 10.898433,-0.007 8.139863,-33.38427 21.023433,-38.89942 4.84191,-2.07271 9.53377,4.78237 14.70508,5.78125 6.45251,1.24636 14.174336,-3.39559 19.714846,0.13867 11.89984,7.59085 5.25097,32.47387 18.12011,38.27149 5.28798,2.38226 10.98977,-3.8968 16.71192,-4.84278 4.85909,-0.8033 10.55708,1.89395 14.75976,-0.67383 12.33482,-7.5364 8.11089,-32.26603 21.52832,-37.64355 5.05743,-2.02695 10.27266,3.89776 15.66797,4.65723 5.86399,0.82544 12.67882,-3.19756 17.76465,-0.16407 12.40957,7.40182 6.85317,32.90421 20.24512,38.33008 5.24828,2.12639 10.55973,-4.37458 16.15234,-5.26269 6.37102,-1.01172 16.99609,0.56738 16.99609,0.56738 7.56327,-2.23851 5.34466,-33.51115 18.68067,-38.90918 5.25885,-2.12863 10.38014,4.90057 15.96484,5.89941 5.94377,1.06306 12.95627,-3.13905 18.11426,0 12.01179,7.31014 6.35841,32.16577 19.38184,37.46778 4.68447,1.90711 9.41389,-3.9407 14.40234,-4.77539 6.38496,-1.06836 14.77496,4.2876 19.41992,-0.22168 8.21637,-7.97636 3.40113,-32.44148 15.93653,-38.21973 5.5385,-2.553 11.39271,4.64066 17.41308,5.61426 6.12188,0.99002 13.38688,-3.19015 18.60352,0.16308 11.64091,7.4827 5.05677,31.70347 17.56933,37.61426 6.09257,2.87806 12.90374,-4.1138 19.58008,-5.02441 5.16416,-0.70436 11.33922,2.64309 15.63281,-0.31153 9.72835,-6.69453 6.51885,-31.71218 19.37403,-37.23437 5.61604,-2.41248 11.54377,4.44426 17.625,5.05957 4.91241,0.49704 10.46684,-3.57772 14.76757,-1.15234 13.00789,7.33575 6.00803,35.1626 20.12793,40.02539 5.11525,1.76166 9.80455,-5.91757 15.29786,-7.13575 4.39264,-0.9741 13.49804,0 13.49804,0"
       id="path40182"
       sodipodi:nodetypes="cssssssssssssssssssssssssssssssc" />
  </g>
</svg>
