<?xml version="1.0" encoding="UTF-8" standalone="no"?>
<!-- Created with Inkscape (http://www.inkscape.org/) -->

<svg
   width="575px"
   height="160px"
   viewBox="0 0 575 160"
   version="1.1"
   id="SVGRoot"
   sodipodi:docname="smoothing-group.svg"
   inkscape:version="1.1.2 (0a00cf5339, 2022-02-04)"
   xmlns:inkscape="http://www.inkscape.org/namespaces/inkscape"
   xmlns:sodipodi="http://sodipodi.sourceforge.net/DTD/sodipodi-0.dtd"
   xmlns="http://www.w3.org/2000/svg"
   xmlns:svg="http://www.w3.org/2000/svg">
  <sodipodi:namedview
     id="namedview46296"
     pagecolor="#505050"
     bordercolor="#eeeeee"
     borderopacity="1"
     inkscape:pageshadow="0"
     inkscape:pageopacity="0"
     inkscape:pagecheckerboard="0"
     inkscape:document-units="px"
     showgrid="false"
     inkscape:zoom="1.28"
     inkscape:cx="246.875"
     inkscape:cy="244.92188"
     inkscape:window-width="1534"
     inkscape:window-height="836"
     inkscape:window-x="0"
     inkscape:window-y="0"
     inkscape:window-maximized="1"
     inkscape:current-layer="layer1"
     inkscape:lockguides="true" />
  <defs
     id="defs46291" />
  <g
     inkscape:label="Layer 1"
     inkscape:groupmode="layer"
     id="layer1">
    <path
       style="display:inline;fill:none;stroke:#fa5c00;stroke-width:2.13543;stroke-linecap:round;stroke-linejoin:round;stroke-miterlimit:4;stroke-dasharray:none;stroke-opacity:1"
       d="m 2.0737,77.94226 c 0,0 2.713,19.25943 6.59115,18.84329 3.169525,-0.34011 0.660437,-8.84248 3.846965,-8.75528 3.19422,0.0874 0.175289,8.93761 3.370496,8.97418 3.547484,0.0406 0.539845,-8.96655 3.96919,-9.87533 1.924554,-0.51001 2.7275,3.32079 4.679748,3.71162 1.875116,0.37538 3.794009,-2.38155 5.520819,-1.55991 2.617816,1.2456 0.673899,7.13227 3.444384,7.98602 2.996824,0.9235 4.806018,-5.06491 7.941831,-5.04297 3.748333,0.0262 8.054869,9.656 9.407835,6.16026 6.689858,-17.28497 2.966157,-32.20647 10.025172,-46.35002 2.00822,-4.02371 4.43419,-9.22528 8.82295,-10.2061 4.59861,-1.02772 8.34683,6.88538 12.91782,5.7411 3.20026,-0.80114 2.79383,-8.05308 6.08361,-7.80648 3.38193,0.25351 1.77561,7.77966 4.98772,8.86783 2.26705,0.76801 4.44883,-3.88131 6.59944,-2.83049 3.49948,1.7099 -0.47579,9.47844 2.96584,11.30197 1.11526,0.59092 2.55379,-2.01007 3.57006,-1.26161 5.99043,4.41183 3.84102,36.95161 13.98538,51.60498 2.15487,3.11267 5.43514,6.86024 9.21449,6.63949 2.07533,-0.12122 2.52519,-4.32225 4.60103,-4.21019 1.88143,0.10157 1.85093,4.24908 3.73509,4.24264 3.07188,-0.0105 2.9842,-7.25055 6.04218,-6.95851 2.29606,0.21928 1.16843,5.7838 3.46579,5.989 2.62419,0.23439 2.71418,-4.93194 5.10857,-6.03112 1.14617,-0.52617 2.90083,0.92848 3.78343,0.0276 9.82766,-10.03114 4.84957,-53.71484 13.79066,-53.48393 2.58708,0.0668 3.64214,5.05316 6.20168,4.67078 1.87515,-0.28014 1.48381,-4.23868 3.34495,-4.60034 2.03898,-0.39622 3.21813,3.50334 5.28535,3.30075 2.75885,-0.27038 3.31301,-6.02978 6.06426,-5.69069 3.40499,0.41966 2.15211,8.36392 5.57054,8.65446 2.37914,0.20221 2.48787,-4.8599 4.83788,-5.28258 4.99244,-0.89796 10.38493,5.18114 13.54414,6.93779 4.49311,2.49836 5.71876,42.38173 10.46849,44.04502 1.656,0.57991 2.65928,-3.35771 4.36418,-2.94306 2.06496,0.50222 0.97201,5.18979 3.05837,5.59402 4.1484,0.80376 5.61737,-8.67986 9.79523,-8.04679 4.54618,0.68888 3.03932,12.20515 7.5862,11.52087 4.60557,-0.69312 -0.54051,-12.03861 3.90911,-13.41432 2.559,-0.79118 3.57193,5.5634 6.20998,5.0996 6.48852,-1.14077 5.73442,-52.4847 17.74672,-58.71541 2.97777,-1.54455 4.17319,6.10486 7.46536,6.74858 2.6338,0.51499 4.93091,-3.25921 7.56618,-2.75177 4.30013,0.82803 5.77775,7.01291 9.79592,8.75389 2.64958,1.148 5.85693,1.57402 8.62891,0.76512 1.48905,-0.43452 2.31006,-3.55418 3.68676,-2.83948 10.6754,5.54205 9.98079,51.33943 18.97587,53.77395 1.88546,0.5103 1.96457,-4.29121 3.91671,-4.35865 3.56179,-0.12305 4.13304,7.07392 7.67805,7.44051 2.56628,0.26538 4.04371,-3.49406 6.54281,-4.13492 1.7652,-0.45266 3.86334,1.2208 5.4566,0.33629 2.83159,-1.57197 1.38238,-8.54101 4.62105,-8.54674 3.09886,-0.005 1.37805,8.56599 4.45049,8.16211 3.8503,-0.50613 4.49474,-45.71817 13.95846,-53.73942 0.7153,-0.60627 1.67797,1.54444 2.54738,1.19324 3.10441,-1.25403 0.28022,-8.84327 3.58456,-9.38298 5.44514,-0.88937 5.0574,12.00116 10.51959,12.77902 2.30525,0.32828 3.47411,-4.33538 5.76872,-3.93949 2.41153,0.41606 1.88062,6.05267 4.32482,5.93238 2.78065,-0.13685 1.47668,-6.81247 4.23366,-7.19951 2.84105,-0.39884 3.39561,5.5339 6.2369,5.93099 1.73118,0.24194 3.2313,-3.46122 4.64523,-2.43344 8.71525,6.33505 5.52476,52.95264 14.17735,52.24787 2.7022,-0.2201 2.81704,-5.65215 5.5077,-5.98485 1.70727,-0.2111 2.60854,3.05374 4.31445,2.83188 2.11632,-0.27524 2.14668,-4.91198 4.27579,-4.76538 2.80721,0.19329 1.94195,6.56968 4.72325,6.99649 5.42103,0.8319 7.44184,-11.02208 12.87156,-10.2489 1.89501,0.26985 1.59051,5.51888 3.31525,4.68872 3.90803,-1.88104 3.50715,-29.89132 9.88154,-43.22673 1.72534,-3.60947 3.50235,-8.64473 7.42531,-9.42925 5.45041,-1.08999 9.02789,8.65131 14.56129,8.12552 5.7547,-0.54682 8.22852,-8.34293 13.28104,-11.15143 3.37461,-1.87581 7.76437,-5.69525 11.00849,-3.60183 12.11079,7.81505 1.0965,51.53413 20.44533,55.84417 2.76208,0.61526 3.20079,-5.82387 6.02629,-5.97933 1.7926,-0.0986 2.44377,3.0667 4.2164,3.35116 2.54709,0.40873 4.74378,-3.24226 7.26097,-2.67789 1.89604,0.4251 2.18956,4.58902 4.08451,4.15909 2.78291,-0.63139 0.22206,-6.82404 2.77525,-8.09859 1.19983,-0.59895 3.82556,1.24504 3.82556,1.24504"
       id="path30608"
       sodipodi:nodetypes="cssssssssssssssssssssssssssssssssssssssssssssssssssssssssssssssssssssssssasssssssc" />
  </g>
</svg>
